<svg width="148" height="60" viewBox="0 0 148 60" fill="none" xmlns="http://www.w3.org/2000/svg">
<g clip-path="url(#clip0_4_41)">
<path d="M42.4389 20.6553H46.5707C47.3176 20.6553 47.956 20.8112 48.5102 21.1109C49.0523 21.4106 49.4859 21.8422 49.7871 22.3936C50.0882 22.9451 50.2448 23.5804 50.2448 24.3117C50.2448 25.043 50.0882 25.6424 49.7871 26.1938C49.4859 26.7453 49.0523 27.1768 48.5102 27.4765C47.9681 27.7882 47.3176 27.9321 46.5707 27.9321H42.4389V20.6553ZM55.9307 38.1818L50.3412 30.5335C50.3412 30.5335 50.4496 30.4975 50.5098 30.4735C51.7265 29.982 52.6902 29.2388 53.3648 28.2438C54.0394 27.2487 54.3767 25.99 54.3767 24.4436V23.988C54.3767 22.4655 54.0394 21.1948 53.3769 20.1878C52.7143 19.1808 51.7506 18.4256 50.5219 17.9341C49.2932 17.4426 47.8235 17.1908 46.1491 17.1908H38.3793V38.1698H42.4509V31.2048H46.1491C46.1491 31.2048 46.2093 31.2048 46.2334 31.2048L51.1603 38.1698H55.9186L55.9307 38.1818ZM61.5683 26.026C62.1826 25.6304 62.9295 25.4266 63.8089 25.4266C64.6883 25.4266 65.4231 25.6184 66.0013 26.002C66.5795 26.3856 67.0252 26.9251 67.3023 27.6324C67.4589 28.028 67.5673 28.4835 67.6396 28.975H59.8216C59.9059 28.5315 60.0143 28.1359 60.1709 27.7642C60.4841 27.009 60.9539 26.4336 61.5683 26.038M71.4582 29.97C71.4582 28.6034 71.1691 27.3207 70.603 26.1339C70.0247 24.947 69.1695 23.988 68.0371 23.2567C66.9048 22.5255 65.4833 22.1538 63.8089 22.1538C62.532 22.1538 61.3996 22.3816 60.4239 22.8252C59.4482 23.2687 58.629 23.8681 57.9665 24.6234C57.3039 25.3786 56.81 26.2298 56.4727 27.1888C56.1354 28.1479 55.9668 29.1429 55.9668 30.1738V30.7133C55.9668 31.7083 56.1354 32.6793 56.4727 33.6264C56.81 34.5734 57.3039 35.4366 57.9665 36.2158C58.629 36.983 59.4602 37.5944 60.46 38.0499C61.4599 38.5055 62.6404 38.7333 63.9775 38.7333C65.3147 38.7333 66.3988 38.5175 67.4107 38.0739C68.4105 37.6424 69.2417 37.019 69.8922 36.2158C70.5427 35.4126 70.9764 34.4895 71.2173 33.4226H67.5432C67.3746 33.998 66.977 34.4775 66.3627 34.8611C65.7483 35.2567 64.9533 35.4485 63.9775 35.4485C63.0018 35.4485 62.1947 35.2328 61.5683 34.8012C60.9419 34.3696 60.4721 33.7822 60.1589 33.027C59.9541 32.5355 59.8457 31.972 59.7734 31.3846H71.4582V29.958V29.97ZM83.5767 22.6813L80.4086 34.9331H79.734L76.0358 22.6813H71.928L76.8068 38.1818H83.2033L87.4195 22.6813H83.5767ZM96.7192 35.3287C97.6949 35.3287 98.5141 35.1129 99.1887 34.6813C99.8633 34.2497 100.369 33.6743 100.706 32.9431C101.056 32.2118 101.224 31.3726 101.224 30.4376C101.224 29.5025 101.044 28.6513 100.694 27.9081C100.345 27.1768 99.8271 26.6014 99.1405 26.1698C98.4659 25.7383 97.6468 25.5225 96.7192 25.5225C95.7916 25.5225 94.9725 25.7383 94.2979 26.1698C93.6233 26.6014 93.0933 27.1768 92.7319 27.9081C92.3705 28.6394 92.1898 29.4905 92.1898 30.4376C92.1898 31.3846 92.3705 32.1998 92.7198 32.9431C93.0692 33.6743 93.5872 34.2497 94.2497 34.6813C94.9243 35.1129 95.7434 35.3287 96.7192 35.3287ZM96.7192 38.7333C95.3459 38.7333 94.1292 38.5175 93.0812 38.0739C92.0332 37.6424 91.1418 37.043 90.419 36.2877C89.6962 35.5325 89.1421 34.6813 88.7687 33.7343C88.3952 32.7872 88.2146 31.7922 88.2146 30.7612V30.1618C88.2146 29.0949 88.4073 28.0879 88.8048 27.1169C89.2023 26.1459 89.7565 25.2947 90.4913 24.5514C91.2261 23.7962 92.1175 23.2088 93.1776 22.7772C94.2256 22.3457 95.4182 22.1299 96.7312 22.1299C98.0443 22.1299 99.2369 22.3457 100.285 22.7772C101.333 23.2088 102.224 23.7962 102.971 24.5514C103.706 25.3067 104.272 26.1578 104.646 27.1169C105.031 28.0759 105.224 29.0949 105.224 30.1618V30.7612C105.224 31.7922 105.043 32.7752 104.67 33.7343C104.296 34.6933 103.742 35.5325 103.019 36.2877C102.297 37.043 101.405 37.6304 100.357 38.0739C99.3091 38.5175 98.1045 38.7333 96.7433 38.7333M105.874 17.3466V20.3197H107.826V38.1938H111.813V17.3466H105.874ZM120.366 38.6733C121.571 38.6733 122.57 38.4096 123.377 37.8701C124.185 37.3427 124.787 36.5514 125.184 35.4965C125.582 34.4535 125.787 33.1469 125.787 31.5884H125.474V38.1818H128.63V22.6573H124.642V31.8162C124.642 32.8232 124.353 33.6264 123.763 34.2138C123.185 34.8012 122.426 35.1009 121.51 35.1009C120.595 35.1009 119.86 34.8252 119.33 34.2617C118.8 33.6983 118.523 32.9431 118.523 31.996V22.6573H114.536V31.6483C114.536 33.974 115.029 35.7243 116.017 36.8991C117.005 38.0739 118.39 38.6733 120.185 38.6733H120.354H120.366ZM20.2497 0.93506L31.8382 12.4316C31.1275 11.7602 30.1758 11.3407 29.1278 11.3167H21.2977V3.58441C21.2736 2.56543 20.8761 1.64235 20.2377 0.93506M31.9707 11.4246L21.4302 0.923072C20.852 0.347647 20.0449 0.0119826 19.2258 0.0119826L0 -0.0119934V32.3796H4.69803V27.7163H9.39606V32.3916H4.15595V38.1339H9.92609V32.3916H14.082V37.0669H18.7801V32.3916H23.4902V37.0669H32.8742V13.6064C32.8742 12.7792 32.561 12 31.9707 11.4126M23.0203 37.0669H18.7921V41.2747H23.0203V37.0669Z" fill="#072C3D"/>
<path d="M141.603 20.0679H135.255V38.1818H130.979V20.0679H124.63V16.3277H141.591V20.0679H141.603ZM143.724 38.1818H148V16.3277H143.724V38.1818ZM12.9979 42.8212H8.92625V46.8731H12.9979V42.8212ZM7.28796 46.969H3.69818V50.5415H7.28796V46.969ZM13.2749 50.3616H10.1791V53.4426H13.2749V50.3616ZM25.7669 51.4645H22.671V54.5455H25.7669V51.4645ZM17.985 56.9191H14.8891V60H17.985V56.9191ZM8.63714 55.0729H5.54125V58.1538H8.63714V55.0729ZM32.3441 46.969H28.7543V50.5415H32.3441V46.969Z" fill="#77BCC4"/>
<path d="M4.69804 41.0589H0.686646V37.0669H4.69804V41.0589ZM18.4669 42.0539H14.3953V46.1059H18.4669V42.0539ZM22.9119 46.969H19.3222V50.5415H22.9119V46.969ZM14.0941 37.0669H9.39607V41.7423H14.0941V37.0669ZM32.8742 35.9161H26.8029V41.5385H23.8034V45.5904H27.875V41.97H32.8742V35.9281V35.9161Z" fill="#00626F"/>
</g>
<defs>
<clipPath id="clip0_4_41">
<rect width="148" height="60" fill="white"/>
</clipPath>
</defs>
</svg>
